<?xml version='1.0' encoding='UTF-8'?>
<!DOCTYPE svg PUBLIC "-//W3C//DTD SVG 1.0//EN" "http://www.w3.org/TR/2001/REC-SVG-20010904/DTD/svg10.dtd">
<svg viewBox="0 0 832 536" xmlns="http://www.w3.org/2000/svg" xmlns:inkspace="http://www.inkscape.org/namespaces/inkscape" xmlns:xlink="http://www.w3.org/1999/xlink">
  <defs id="defs_block">
    <filter height="1.504" id="filter_blur" inkspace:collect="always" width="1.1575" x="-0.07875" y="-0.252">
      <feGaussianBlur id="feGaussianBlur3780" inkspace:collect="always" stdDeviation="4.2" />
    </filter>
  </defs>
  <title>blockdiag</title>
  <desc>seqdiag {
  "CNI
runtime" -&gt; "IPvlan
cni-ipvlan-vpc-k8s" [label = "ADD container"];
                   "IPvlan
cni-ipvlan-vpc-k8s" -&gt; "IPAM
cni-ipvlan-vpc-k8s" [label = "allocate IP/ENI"];
		   "IPvlan
cni-ipvlan-vpc-k8s" &lt;-- "IPAM
cni-ipvlan-vpc-k8s" [label = "IP, ENI, VPC routes, DNS"];
  "CNI
runtime" &lt;-- "IPvlan
cni-ipvlan-vpc-k8s" [label = "Pod IP, interface name"];
  "CNI
runtime" -&gt; "Unnumbered PtP
cni-ipvlan-vpc-k8s" [label = "ADD container(prevResult)"];
  "CNI
runtime" &lt;-- "Unnumbered PtP
cni-ipvlan-vpc-k8s" [label = "prevResult"];
}  
</desc>
  <rect fill="rgb(0,0,0)" height="374" style="filter:url(#filter_blur);opacity:0.7;fill-opacity:1" width="8" x="127" y="140" />
  <rect fill="rgb(0,0,0)" height="197" style="filter:url(#filter_blur);opacity:0.7;fill-opacity:1" width="8" x="319" y="140" />
  <rect fill="rgb(0,0,0)" height="66" style="filter:url(#filter_blur);opacity:0.7;fill-opacity:1" width="8" x="511" y="205" />
  <rect fill="rgb(0,0,0)" height="66" style="filter:url(#filter_blur);opacity:0.7;fill-opacity:1" width="8" x="703" y="402" />
  <rect fill="rgb(0,0,0)" height="40" stroke="rgb(0,0,0)" style="filter:url(#filter_blur);opacity:0.7;fill-opacity:1" width="128" x="67" y="46" />
  <rect fill="rgb(0,0,0)" height="40" stroke="rgb(0,0,0)" style="filter:url(#filter_blur);opacity:0.7;fill-opacity:1" width="128" x="259" y="46" />
  <rect fill="rgb(0,0,0)" height="40" stroke="rgb(0,0,0)" style="filter:url(#filter_blur);opacity:0.7;fill-opacity:1" width="128" x="451" y="46" />
  <rect fill="rgb(0,0,0)" height="40" stroke="rgb(0,0,0)" style="filter:url(#filter_blur);opacity:0.7;fill-opacity:1" width="128" x="643" y="46" />
  <path d="M 128 80 L 128 524" fill="none" stroke="rgb(0,0,0)" stroke-dasharray="8 4" />
  <rect fill="moccasin" height="374" stroke="rgb(0,0,0)" width="8" x="124" y="134" />
  <path d="M 320 80 L 320 524" fill="none" stroke="rgb(0,0,0)" stroke-dasharray="8 4" />
  <rect fill="moccasin" height="197" stroke="rgb(0,0,0)" width="8" x="316" y="134" />
  <path d="M 512 80 L 512 524" fill="none" stroke="rgb(0,0,0)" stroke-dasharray="8 4" />
  <rect fill="moccasin" height="66" stroke="rgb(0,0,0)" width="8" x="508" y="199" />
  <path d="M 704 80 L 704 524" fill="none" stroke="rgb(0,0,0)" stroke-dasharray="8 4" />
  <rect fill="moccasin" height="66" stroke="rgb(0,0,0)" width="8" x="700" y="396" />
  <rect fill="rgb(255,255,255)" height="40" stroke="rgb(0,0,0)" width="128" x="64" y="40" />
  <text fill="rgb(0,0,0)" font-family="sans-serif" font-size="11" font-style="normal" font-weight="normal" text-anchor="middle" textLength="18" x="128" y="59">CNI</text>
  <text fill="rgb(0,0,0)" font-family="sans-serif" font-size="11" font-style="normal" font-weight="normal" text-anchor="middle" textLength="38" x="128" y="71">runtime</text>
  <rect fill="rgb(255,255,255)" height="40" stroke="rgb(0,0,0)" width="128" x="256" y="40" />
  <text fill="rgb(0,0,0)" font-family="sans-serif" font-size="11" font-style="normal" font-weight="normal" text-anchor="middle" textLength="29" x="320" y="58">IPvlan</text>
  <text fill="rgb(0,0,0)" font-family="sans-serif" font-size="11" font-style="normal" font-weight="normal" text-anchor="middle" textLength="97" x="320" y="72">cni-ipvlan-vpc-k8s</text>
  <rect fill="rgb(255,255,255)" height="40" stroke="rgb(0,0,0)" width="128" x="448" y="40" />
  <text fill="rgb(0,0,0)" font-family="sans-serif" font-size="11" font-style="normal" font-weight="normal" text-anchor="middle" textLength="27" x="512" y="58">IPAM</text>
  <text fill="rgb(0,0,0)" font-family="sans-serif" font-size="11" font-style="normal" font-weight="normal" text-anchor="middle" textLength="97" x="512" y="72">cni-ipvlan-vpc-k8s</text>
  <rect fill="rgb(255,255,255)" height="40" stroke="rgb(0,0,0)" width="128" x="640" y="40" />
  <text fill="rgb(0,0,0)" font-family="sans-serif" font-size="11" font-style="normal" font-weight="normal" text-anchor="middle" textLength="86" x="704" y="58">Unnumbered PtP</text>
  <text fill="rgb(0,0,0)" font-family="sans-serif" font-size="11" font-style="normal" font-weight="normal" text-anchor="middle" textLength="97" x="704" y="72">cni-ipvlan-vpc-k8s</text>
  <path d="M 136 134 L 312 134" fill="none" stroke="rgb(0,0,0)" />
  <polygon fill="rgb(0,0,0)" points="304,130 312,134 304,138" stroke="rgb(0,0,0)" />
  <path d="M 328 199 L 504 199" fill="none" stroke="rgb(0,0,0)" />
  <polygon fill="rgb(0,0,0)" points="496,195 504,199 496,203" stroke="rgb(0,0,0)" />
  <path d="M 328 265 L 504 265" fill="none" stroke="rgb(0,0,0)" stroke-dasharray="4" />
  <polygon fill="rgb(0,0,0)" points="336,261 328,265 336,269" stroke="rgb(0,0,0)" />
  <path d="M 136 331 L 312 331" fill="none" stroke="rgb(0,0,0)" stroke-dasharray="4" />
  <polygon fill="rgb(0,0,0)" points="144,327 136,331 144,335" stroke="rgb(0,0,0)" />
  <path d="M 136 396 L 696 396" fill="none" stroke="rgb(0,0,0)" />
  <polygon fill="rgb(0,0,0)" points="688,392 696,396 688,400" stroke="rgb(0,0,0)" />
  <path d="M 136 462 L 696 462" fill="none" stroke="rgb(0,0,0)" stroke-dasharray="4" />
  <polygon fill="rgb(0,0,0)" points="144,458 136,462 144,466" stroke="rgb(0,0,0)" />
  <text fill="rgb(0,0,0)" font-family="sans-serif" font-size="11" font-style="normal" font-weight="normal" text-anchor="middle" textLength="74" x="177" y="132">ADD container</text>
  <text fill="rgb(0,0,0)" font-family="sans-serif" font-size="11" font-style="normal" font-weight="normal" text-anchor="middle" textLength="73" x="368" y="197">allocate IP/ENI</text>
  <text fill="rgb(0,0,0)" font-family="sans-serif" font-size="11" font-style="normal" font-weight="normal" text-anchor="middle" textLength="127" x="440" y="263">IP, ENI, VPC routes, DNS</text>
  <text fill="rgb(0,0,0)" font-family="sans-serif" font-size="11" font-style="normal" font-weight="normal" text-anchor="middle" textLength="115" x="254" y="329">Pod IP, interface name</text>
  <text fill="rgb(0,0,0)" font-family="sans-serif" font-size="11" font-style="normal" font-weight="normal" text-anchor="middle" textLength="138" x="209" y="394">ADD container(prevResult)</text>
  <text fill="rgb(0,0,0)" font-family="sans-serif" font-size="11" font-style="normal" font-weight="normal" text-anchor="middle" textLength="52" x="670" y="460">prevResult</text>
</svg>
